<?xml version="1.0" standalone="no"?>
<!DOCTYPE svg PUBLIC "-//W3C//DTD SVG 20010904//EN"
 "http://www.w3.org/TR/2001/REC-SVG-20010904/DTD/svg10.dtd">
<svg version="1.0" xmlns="http://www.w3.org/2000/svg"
 width="897.000000pt" height="897.000000pt" viewBox="0 0 897.000000 897.000000"
 preserveAspectRatio="xMidYMid meet">
<metadata>
Created by potrace 1.11, written by Peter Selinger 2001-2013
</metadata>
<g transform="translate(0.000000,897.000000) scale(0.100000,-0.100000)"
fill="#000000" stroke="none">
<path d="M545 8396 c-64 -30 -111 -77 -144 -146 l-26 -55 0 -3770 0 -3770 24
-47 c28 -54 68 -96 126 -130 l40 -23 3765 -3 c3306 -2 3771 0 3816 13 64 18
137 81 167 144 l22 46 0 3785 0 3786 -34 55 c-34 57 -94 105 -160 127 -26 9
-965 12 -3790 12 l-3756 0 -50 -24z m7225 -545 c7 -1 4 -6821 -3 -6827 -4 -5
-1717 -8 -1817 -5 -13 1 -15 269 -15 2384 l-1 2382 -25 55 c-32 69 -79 115
-149 149 l-55 25 -2380 1 -2380 0 -3 917 -2 917 27 3 c23 2 6787 1 6803 -1z
m-2415 -2410 c7 -1 10 -743 10 -2211 l0 -2210 -25 -1 c-162 -3 -1903 0 -1906
4 -3 3 -6 513 -7 1134 -2 1124 -2 1128 -23 1174 -31 66 -78 115 -142 146 l-57
28 -1132 0 -1133 0 0 970 0 970 2202 -1 c1212 -1 2208 -2 2213 -3z m-2496
-3462 l0 -959 -47 -1 c-66 0 -1789 0 -1834 0 l-38 1 0 959 0 959 959 0 960 0
0 -959z"/>
</g>
</svg>
